<?xml version="1.0" encoding="utf-8"?>
<!-- Generator: Adobe Illustrator 25.2.3, SVG Export Plug-In . SVG Version: 6.00 Build 0)  -->
<svg version="1.1" id="Layer_1" xmlns="http://www.w3.org/2000/svg" xmlns:xlink="http://www.w3.org/1999/xlink" x="0px" y="0px"
	 viewBox="0 0 271 136" style="enable-background:new 0 0 271 136;" xml:space="preserve">
<style type="text/css">
	.st0{fill:#FFFFFF;}
	.st1{fill:#969595;}
	.st2{fill:#223C76;}
	.st3{fill:#74AFCA;}
	.st4{fill:#233D77;}
	.st5{fill:none;}
	.st6{fill:#DEDEDE;}
	.st7{fill:#5A92A4;}
	.st8{fill:url(#SVGID_1_);}
	.st9{fill:#2D2D2D;}
	.st10{fill:#636463;}
	.st11{fill:#CBCACA;}
	.st12{fill:#808080;}
	.st13{fill:#F7F7F8;}
	.st14{fill:#231F20;}
	.st15{fill:url(#SVGID_2_);}
	.st16{fill:url(#SVGID_3_);}
	.st17{fill:url(#SVGID_4_);}
</style>
<g>
	<g>
		<polygon class="st0" points="205.7,134.5 187.8,134.5 187.8,117.8 205.7,117.8 199.9,126.3 		"/>
		<path class="st1" d="M206.7,135h-19.3v-17.7h19.3l-6.2,9.1L206.7,135z M188.3,134.1h16.6l-5.4-7.6l5.5-8.1h-16.6v15.7H188.3z"/>
	</g>
	<g>
		<polygon class="st1" points="189.5,119.6 198.2,120.6 189.5,121.3 		"/>
		<polygon class="st1" points="189.5,121.9 198.2,122.8 189.5,123.6 		"/>
		<polygon class="st1" points="189.5,124.1 198.2,125.1 189.5,125.9 		"/>
		<polygon class="st1" points="189.5,126.4 198.2,127.4 189.5,128.2 		"/>
		<polygon class="st1" points="189.5,128.8 198.2,129.8 189.5,130.5 		"/>
		<polygon class="st1" points="189.5,131.1 198.2,132.1 189.5,132.7 		"/>
	</g>
	<g>
		<polygon class="st1" points="187.8,134.5 192.4,130.6 187.8,125.6 		"/>
		<path class="st1" d="M187.8,135c-0.1,0-0.1,0-0.2,0c-0.2-0.1-0.3-0.2-0.3-0.4v-8.9c0-0.2,0.1-0.3,0.3-0.4c0.2-0.1,0.4,0,0.6,0.1
			l4.5,5.1c0.1,0.1,0.1,0.2,0.1,0.3c0,0.1-0.1,0.2-0.2,0.3l-4.5,3.9C188.1,135,188,135,187.8,135z M188.3,126.8v6.6l3.3-2.9
			L188.3,126.8z"/>
	</g>
	<g>
		<g>
			<polygon class="st0" points="87.8,134.5 105.7,134.5 105.7,117.8 87.8,117.8 93.6,126.3 			"/>
			<path class="st1" d="M106.2,135H86.9l6.2-8.6l-6.2-9.1h19.3V135z M88.8,134.1h16.5v-15.7H88.7l5.5,8.1L88.8,134.1z"/>
		</g>
		<g>
			<polygon class="st1" points="104,119.6 95.3,120.6 104,121.3 			"/>
			<polygon class="st1" points="104,121.9 95.3,122.8 104,123.6 			"/>
			<polygon class="st1" points="104,124.1 95.3,125.1 104,125.9 			"/>
			<polygon class="st1" points="104,126.4 95.3,127.4 104,128.2 			"/>
			<polygon class="st1" points="104,128.8 95.3,129.8 104,130.5 			"/>
			<polygon class="st1" points="104,131.1 95.3,132.1 104,132.7 			"/>
		</g>
		<g>
			<polygon class="st1" points="105.7,134.5 101.3,130.6 105.7,125.6 			"/>
			<path class="st1" d="M105.7,135c-0.1,0-0.2,0-0.3-0.1l-4.5-3.9c-0.1-0.1-0.1-0.2-0.2-0.3c-0.1-0.1,0-0.2,0.1-0.3l4.5-5.1
				c0.1-0.1,0.3-0.2,0.6-0.1c0.2,0.1,0.3,0.2,0.3,0.4v8.9C106.1,134.7,106,134.8,105.7,135C105.9,135,105.8,135,105.7,135z
				 M101.9,130.5l3.3,2.9v-6.6L101.9,130.5z"/>
		</g>
	</g>
	<g>
		<rect x="101.3" y="113.7" class="st0" width="91" height="16.7"/>
		<path class="st1" d="M192.8,130.9h-92v-17.7h92V130.9z M101.8,129.9h90v-15.7h-90V129.9z"/>
	</g>
	<g>
		<path class="st2" d="M112.1,124.2v-0.9h1.4v1c0,0.6,0,1,0.1,1.2c0.1,0.2,0.2,0.3,0.6,0.3c0.2,0,0.4-0.1,0.6-0.3
			c0.1-0.2,0.1-0.4,0.1-0.9c0-0.4-0.1-0.8-0.2-1.1c-0.1-0.3-0.4-0.7-0.8-1l-0.8-0.8c-0.3-0.3-0.7-0.8-0.8-1.1
			c-0.2-0.4-0.3-0.9-0.3-1.3c0-0.8,0.1-1.4,0.4-1.9c0.3-0.4,0.9-0.6,1.7-0.6s1.3,0.2,1.5,0.7c0.2,0.4,0.4,1.1,0.4,2.1v0.7h-1.4v-0.7
			c0-0.4,0-0.9-0.1-1c-0.1-0.2-0.2-0.3-0.4-0.3c-0.2,0-0.4,0.1-0.6,0.2c-0.1,0.1-0.1,0.4-0.1,0.7c0,0.3,0,0.6,0.1,0.8
			c0.1,0.2,0.3,0.4,0.6,0.8l0.8,0.9c0.4,0.4,0.8,0.9,0.9,1.3c0.2,0.4,0.3,1,0.3,1.5c0,0.9-0.1,1.7-0.4,2.1c-0.3,0.4-0.9,0.7-1.7,0.7
			s-1.3-0.2-1.7-0.8C112.3,125.9,112.1,125.1,112.1,124.2z"/>
		<path class="st2" d="M119.8,127v-9.9h1.5v9.9H119.8z"/>
		<path class="st2" d="M125.2,127v-9.9h1.2l2.1,6l-0.1-2.8V117h1.3v9.9h-1.1l-2.2-6.2l0.1,2.7v3.5L125.2,127L125.2,127z"/>
		<path class="st2" d="M137.4,126.4c-0.3,0.4-0.9,0.7-1.7,0.7s-1.3-0.2-1.7-0.8c-0.3-0.4-0.6-1.2-0.6-2.1v-4.3
			c0-1.4,0.4-2.4,1.2-2.8c0.3-0.1,0.7-0.2,1-0.2c1.4,0,2.1,0.9,2.1,2.7v1.3h-1.4v-1.3c0-0.6,0-0.9-0.1-1.1c-0.1-0.2-0.2-0.3-0.6-0.3
			c-0.2,0-0.4,0.1-0.6,0.3c-0.1,0.2-0.1,0.6-0.1,1.1v4.6c0,0.6,0,0.9,0.1,1.1c0.1,0.2,0.2,0.3,0.6,0.3c0.2,0,0.4-0.1,0.6-0.3
			c0.1-0.2,0.1-0.7,0.1-1.2v-1.4h1.5v1.4C137.8,125.2,137.7,126,137.4,126.4z"/>
		<path class="st2" d="M141.4,127v-9.9h3.3v1.3h-1.9v2.9h1.8v1.3h-1.8v3.2h1.9v1.3L141.4,127L141.4,127z"/>
		<path class="st2" d="M152.9,127v-0.6c0-0.6,0.1-1,0.2-1.5c0.2-0.6,0.4-1.1,0.8-1.8c0,0,0.1-0.2,0.4-0.7c0.2-0.4,0.4-0.8,0.6-0.9
			c0.3-0.4,0.4-1.1,0.4-2c0-0.9-0.2-1.3-0.6-1.3s-0.4,0.2-0.6,0.7c0,0.2,0,0.4,0,0.8v1.2h-1.4v-0.6c0-1.2,0.1-2.1,0.3-2.5
			c0.2-0.4,0.6-0.7,1-0.9c0.2-0.1,0.6-0.1,0.8-0.1c0.3,0,0.7,0.1,0.9,0.2c0.2,0.1,0.4,0.3,0.6,0.6c0.3,0.6,0.4,1.1,0.4,2
			c0,0.8-0.1,1.5-0.4,2.1c-0.3,0.7-0.7,1.1-0.9,1.7c-0.6,0.9-0.9,1.7-1.1,2.4h2.3v1.2C156.7,127,152.9,127,152.9,127z"/>
		<path class="st2" d="M164.3,126.4c-0.3,0.4-0.9,0.7-1.8,0.7c-0.8,0-1.3-0.2-1.8-0.7c-0.3-0.4-0.6-1.2-0.6-2.1v-4.7
			c0-0.9,0.2-1.5,0.6-2s0.9-0.7,1.8-0.7c0.8,0,1.3,0.2,1.8,0.7c0.3,0.4,0.6,1.1,0.6,2v4.7C164.9,125.2,164.7,125.9,164.3,126.4z
			 M162.6,125.8c0.2,0,0.4-0.1,0.6-0.3c0.1-0.2,0.2-0.6,0.2-1.2v-4.9c0-0.8-0.2-1.1-0.6-1.2c-0.1,0-0.2,0-0.3,0
			c-0.1,0-0.3,0.1-0.4,0.2c-0.1,0.1-0.2,0.4-0.2,1v4.9c0,0.7,0.1,1,0.2,1.2C162.1,125.8,162.3,125.8,162.6,125.8z"/>
		<path class="st2" d="M172.4,126.4c-0.3,0.4-0.9,0.7-1.8,0.7c-0.8,0-1.3-0.2-1.8-0.7c-0.3-0.4-0.6-1.2-0.6-2.1v-4.7
			c0-0.9,0.2-1.5,0.6-2s0.9-0.7,1.8-0.7c0.8,0,1.3,0.2,1.8,0.7c0.3,0.4,0.6,1.1,0.6,2v4.7C172.9,125.2,172.7,125.9,172.4,126.4z
			 M170.6,125.8c0.2,0,0.4-0.1,0.6-0.3c0.1-0.2,0.2-0.6,0.2-1.2v-4.9c0-0.8-0.2-1.1-0.6-1.2c-0.1,0-0.2,0-0.3,0
			c-0.1,0-0.3,0.1-0.4,0.2c-0.1,0.1-0.2,0.4-0.2,1v4.9c0,0.7,0.1,1,0.2,1.2C170.2,125.8,170.4,125.8,170.6,125.8z"/>
		<path class="st2" d="M177.4,127v-8.1c-0.1,0.1-0.3,0.2-0.6,0.3c-0.2,0.1-0.4,0.1-0.7,0.1v-1.1c0.3,0,0.7-0.2,0.9-0.4
			c0.3-0.2,0.6-0.6,0.7-0.9h1.2v9.9h-1.5L177.4,127L177.4,127z"/>
	</g>
</g>
<path class="st3" d="M123.7,34.2h15.2v7.1h-6.1V48h5.7v6.7h-5.7v7.7h6.6v7.1h-15.8V34.2z"/>
<path class="st3" d="M141,34.2h15.2v7.1h-6.1V48h5.7v6.7h-5.7v7.7h6.6v7.1H141V34.2z"/>
<path class="st3" d="M159,34.2h9.2c2.4,0,4.4,0.2,5.7,0.6c1.3,0.4,2.3,1,3,1.7c0.7,0.8,1.1,1.7,1.3,2.8c0.2,1.1,0.3,2.7,0.3,5v3.1
	c0,2.2-0.2,3.9-0.7,5c-0.4,1-1.3,1.9-2.5,2.4c-1.2,0.6-2.9,0.9-4.9,0.9h-2.4v14.2H159V34.2z M168.1,40.3v9.1c0.2,0,0.4,0,0.7,0
	c0.9,0,1.4-0.2,1.8-0.7c0.3-0.4,0.4-1.3,0.4-2.5v-2.9c0-1.2-0.2-2-0.6-2.3C170.1,40.5,169.3,40.3,168.1,40.3z"/>
<g>
	<path class="st4" d="M48.8,66.6h7.7c5,0,8.4,0.2,10.2,0.7c1.8,0.4,3.1,1.2,4,2.3c0.9,1.1,1.5,2.2,1.8,3.5c0.2,1.3,0.3,3.9,0.3,7.6
		v14.1c0,3.6-0.2,6.1-0.6,7.3c-0.3,1.2-0.9,2.2-1.8,2.9c-0.9,0.7-1.9,1.2-3.1,1.4c-1.2,0.2-3.1,0.4-5.5,0.4h-13V66.6z M59.2,73.4
		v26.5c1.4,0,2.4-0.3,2.8-0.9c0.3-0.6,0.6-2.2,0.6-5V78.5c0-1.9-0.1-3-0.2-3.5c-0.1-0.6-0.3-0.9-0.8-1.1
		C61.1,73.5,60.3,73.4,59.2,73.4z"/>
	<path class="st4" d="M84.5,71.3v35.5h-9.2V71.3H84.5z"/>
	<path class="st4" d="M106.1,82.1h-8.5v-2.7c0-1.2-0.1-2-0.3-2.3c-0.2-0.3-0.6-0.6-1.1-0.6s-1,0.2-1.2,0.7c-0.3,0.4-0.4,1.1-0.4,2.1
		c0,1.2,0.1,2.1,0.4,2.7c0.3,0.6,1.2,1.3,2.7,2.2c4.1,2.4,6.6,4.4,7.7,6.1c1.1,1.5,1.5,4.1,1.5,7.5c0,2.5-0.3,4.4-0.9,5.6
		c-0.6,1.2-1.8,2.2-3.4,3c-1.7,0.8-3.6,1.2-5.9,1.2c-2.4,0-4.5-0.4-6.3-1.4c-1.8-0.9-2.9-2.1-3.4-3.5s-0.8-3.5-0.8-6.2v-2.3h8.5v4.3
		c0,1.3,0.1,2.2,0.3,2.5c0.2,0.3,0.7,0.6,1.2,0.6s1.1-0.2,1.3-0.8c0.3-0.4,0.4-1.2,0.4-2.1c0-2.1-0.3-3.4-0.9-4.1
		c-0.6-0.7-2-1.8-4.3-3.2c-2.3-1.5-3.8-2.7-4.5-3.3c-0.8-0.7-1.3-1.7-1.9-2.9c-0.4-1.2-0.8-2.8-0.8-4.6c0-2.8,0.3-4.7,1-6
		c0.7-1.2,1.8-2.2,3.3-3c1.5-0.7,3.4-1.1,5.5-1.1c2.4,0,4.4,0.4,6.1,1.2s2.8,1.8,3.3,2.9c0.6,1.2,0.8,3.2,0.8,6v1.5H106.1z"/>
	<path class="st4" d="M130.1,86.8h-9.2v-6.2c0-1.8-0.1-2.9-0.3-3.3c-0.2-0.4-0.7-0.7-1.3-0.7c-0.8,0-1.2,0.2-1.4,0.8
		c-0.2,0.6-0.3,1.7-0.3,3.5v16.5c0,1.8,0.1,2.9,0.3,3.4c0.2,0.6,0.7,0.8,1.3,0.8c0.7,0,1.1-0.2,1.3-0.8c0.2-0.6,0.3-1.8,0.3-3.8
		v-4.4h9.2v1.4c0,3.6-0.2,6.3-0.8,7.8c-0.6,1.5-1.7,2.9-3.4,4.1c-1.8,1.1-3.9,1.8-6.5,1.8s-4.9-0.4-6.6-1.4c-1.8-1-2.9-2.3-3.4-4.1
		c-0.6-1.8-0.9-4.3-0.9-7.8V84c0-2.5,0.1-4.4,0.2-5.7c0.2-1.3,0.7-2.5,1.5-3.6c0.9-1.2,2.1-2.1,3.5-2.8c1.5-0.7,3.3-1,5.3-1
		c2.7,0,4.9,0.6,6.6,1.5c1.8,1.1,2.9,2.3,3.4,4c0.6,1.5,0.8,4,0.8,7.3v3.1H130.1z"/>
	<path class="st4" d="M152.7,92.1c0,3.5-0.1,6.1-0.2,7.6c-0.1,1.4-0.7,2.9-1.5,4.1c-0.9,1.2-2.1,2.2-3.5,2.9c-1.5,0.7-3.2,1-5.2,1
		c-1.9,0-3.5-0.3-5.1-0.9c-1.5-0.7-2.8-1.5-3.6-2.8c-0.9-1.2-1.4-2.5-1.7-4.1c-0.2-1.4-0.2-4-0.2-7.6v-6.1c0-3.5,0.1-6.1,0.2-7.6
		c0.2-1.4,0.7-2.9,1.5-4.1c0.9-1.2,2.1-2.2,3.5-2.9c1.4-0.7,3.2-1,5.2-1c1.9,0,3.5,0.3,5.1,0.9c1.5,0.7,2.8,1.5,3.6,2.8
		c0.9,1.2,1.4,2.5,1.7,4.1c0.2,1.4,0.2,4,0.2,7.6V92.1z M143.6,80.5c0-1.7-0.1-2.7-0.3-3.2c-0.2-0.4-0.6-0.7-1.1-0.7
		c-0.4,0-0.9,0.2-1.1,0.6c-0.2,0.3-0.4,1.4-0.4,3.3v16.6c0,2.1,0.1,3.3,0.2,3.9c0.2,0.4,0.6,0.8,1.2,0.8s1.1-0.2,1.2-0.9
		c0.2-0.6,0.2-1.9,0.2-4V80.5H143.6z"/>
	<path class="st4" d="M176.4,71.3v23.7c0,2.7-0.1,4.5-0.2,5.6c-0.2,1.1-0.7,2.2-1.5,3.3s-2,2-3.4,2.7c-1.4,0.6-3.1,0.9-5,0.9
		c-2.1,0-4-0.3-5.5-1.1c-1.7-0.7-2.8-1.7-3.6-2.8c-0.8-1.1-1.2-2.3-1.4-3.5c-0.1-1.2-0.2-3.9-0.2-7.8v-21h9.2V98
		c0,1.5,0.1,2.5,0.2,3c0.2,0.4,0.6,0.7,1,0.7c0.6,0,1-0.2,1.1-0.7c0.2-0.4,0.2-1.5,0.2-3.3V71.3H176.4z"/>
	<path class="st4" d="M199.9,71.3v35.5h-8l-4.7-16.1v16.1h-7.7V71.3h7.6l5.1,16v-16H199.9z"/>
	<path class="st4" d="M221.4,71.3v7.1H216v28.4h-9.2V78.4h-5.3v-7.1H221.4z"/>
</g>
<g>
	<path class="st4" d="M222,103.4v3.3h-3.1v-3.3H222z"/>
	<path class="st4" d="M232.7,97.4h-4.2v-2.9c0-0.8,0-1.3-0.1-1.5c-0.1-0.2-0.3-0.3-0.6-0.3c-0.3,0-0.6,0.1-0.7,0.3
		c-0.1,0.2-0.1,0.8-0.1,1.7v7.6c0,0.8,0,1.3,0.1,1.5c0.1,0.2,0.3,0.3,0.7,0.3s0.6-0.1,0.7-0.3c0.1-0.2,0.1-0.8,0.1-1.7v-2.1h4.2v0.7
		c0,1.7-0.1,2.9-0.3,3.6c-0.2,0.7-0.8,1.3-1.5,1.9s-1.8,0.8-3,0.8c-1.2,0-2.2-0.2-3.1-0.7c-0.8-0.4-1.3-1.1-1.5-1.9
		c-0.2-0.8-0.4-2-0.4-3.5v-4.9c0-1.2,0-2.1,0.1-2.7c0.1-0.6,0.3-1.1,0.7-1.7c0.4-0.6,1-1,1.7-1.3c0.7-0.3,1.5-0.4,2.4-0.4
		c1.2,0,2.2,0.2,3.1,0.8c0.8,0.4,1.3,1.1,1.5,1.8c0.2,0.8,0.3,1.9,0.3,3.3L232.7,97.4L232.7,97.4z"/>
	<path class="st4" d="M243.6,99.8c0,1.7,0,2.8-0.1,3.4c-0.1,0.7-0.3,1.3-0.7,1.9c-0.4,0.6-1,1-1.7,1.3c-0.7,0.3-1.4,0.4-2.4,0.4
		c-0.9,0-1.7-0.1-2.3-0.4c-0.7-0.3-1.2-0.7-1.7-1.3c-0.4-0.6-0.7-1.2-0.8-1.9c-0.1-0.7-0.1-1.9-0.1-3.5V97c0-1.7,0-2.8,0.1-3.5
		c0.1-0.7,0.3-1.3,0.7-1.9c0.4-0.6,1-1,1.7-1.3c0.7-0.3,1.4-0.4,2.4-0.4c0.9,0,1.7,0.1,2.3,0.4s1.2,0.7,1.7,1.3
		c0.4,0.6,0.7,1.2,0.8,1.9c0.1,0.7,0.1,1.9,0.1,3.5V99.8z M239.4,94.5c0-0.8,0-1.2-0.1-1.4c-0.1-0.2-0.2-0.3-0.6-0.3
		c-0.2,0-0.4,0.1-0.6,0.2c-0.1,0.2-0.2,0.7-0.2,1.5v7.6c0,1,0,1.5,0.1,1.8c0.1,0.2,0.2,0.3,0.6,0.3s0.4-0.1,0.6-0.3
		c0.1-0.2,0.1-0.9,0.1-1.8v-7.6H239.4z"/>
	<path class="st4" d="M257.9,90.3v16.3h-3.6v-11l-1.4,11h-2.7l-1.5-10.8v10.8h-3.6V90.3h5.4c0.1,1,0.3,2.1,0.6,3.4l0.6,4.2l1-7.6
		H257.9z"/>
</g>
<path class="st5" d="M109.3,36.8c-0.4-0.2-1.2-0.3-2.3-0.3v26.4c1.4,0,2.4-0.3,2.8-0.9c0.3-0.6,0.6-2.2,0.6-5V41.4
	c0-1.9-0.1-3-0.2-3.5C110,37.4,109.7,37,109.3,36.8z"/>
<path class="st3" d="M120.3,36.1c-0.2-1.3-0.8-2.4-1.8-3.5c-0.9-1.1-2.2-1.9-4-2.3c-1.8-0.4-5.2-0.7-10.2-0.7h-1.4
	c2.8,1.4,2.9,3.5,2.9,3.5c0.4,4.6-4.7,6.4-9.3,7.1v29.7h13c2.4,0,4.3-0.1,5.5-0.4c1.2-0.2,2.3-0.8,3.1-1.4c0.9-0.7,1.4-1.7,1.8-2.9
	c0.3-1.2,0.6-3.6,0.6-7.3V43.7C120.6,40,120.5,37.3,120.3,36.1z M110.2,57.1c0,2.7-0.2,4.3-0.6,5c-0.3,0.6-1.2,0.9-2.8,0.9V36.4
	c1.1,0,1.9,0.1,2.3,0.3c0.4,0.2,0.7,0.7,0.8,1.1c0.1,0.6,0.2,1.7,0.2,3.5C110.2,41.4,110.2,57.1,110.2,57.1z"/>
<path class="st6" d="M102.9,29.6c-0.1-0.1-0.3-0.1-0.4-0.2c0,0-0.4-0.3-1.1-0.9c-1-1-2.2-2.3-2.5-2.5c0.7-0.8,1.8-2.9,0.3-7.1
	c0,0,0.6-0.7,1.2-0.7c0,0,0.1-1.7-0.4-2.1c0,0-8.3-1.5-11.9,1.1c-0.1,0.1-0.3,0.2-0.4,0.3c-1.2-0.4-2.7-0.8-4.2-1.1
	c-1.8-0.4-4.1-0.8-6.5-1l0,0c-0.3-0.3-6.1-5.2-15.8-0.8C61,14.6,51.3,5.2,38.5,3.3c-3.1-0.4-6.3-0.4-9.5,0.2
	c-0.9,0.1-1.7,0.3-2.5,0.6c0,0,0.1,0,0.3,0c-0.8,0.2-1.4,0.4-2.2,0.8c0,0,0,0-0.1-0.1c0,0-0.4,0.3-0.3,0.8c0,0.4,0.4,1,2,1.4
	c0.1,0,0.2,0.1,0.4,0.1l0,0c2.7,1,8.4,4.6,10.2,10.1v0.1c0,0.1,0.1,0.3,0.1,0.4c0,0.2,0.1,0.4,0.1,0.6l0,0c0.1,0.8,0.2,1.5,0.2,2.3
	c0,0.9-0.1,1.7-0.3,2.7c0,0-4.1,8.2-4.7,12.8c0,0-3.5-3.2-7.4-4.4c-1.4-0.6-3.1-1-4.6-1.2c-1.3-0.2-2.7-0.4-3.9-0.4
	c0,0-5.7,0.4-8.1,2.1c-0.7,0.4-1,1.1-0.9,1.8c0,0,0.7,0.8,4.3,1.2c3.6,0.4,15.1,4.9,19.7,15.9c0,0,0.1,0.2,0.2,0.6
	c-0.9,1.9-1.5,3.5-2,4.7C29.3,57,29,57.5,29,57.9c-0.1,1.3,0.3,2,0.9,2.4l0,0c0.1,0.1,0.1,0.1,0.2,0.1c0.3,0.2,0.7,0.3,0.7,0.3l0,0
	c0.4,0.1,1-0.7,2.1-1.5c0,1.8-0.1,3.8-0.8,5.5c0,0-1.8,3.1-0.9,4.5l0,0c0,0,0,0,0.1,0v0.1c0.2,0.2,0.7,0.3,1.2,0.1
	c0.6-0.1,1.1-0.3,1.3-0.6c2.9-1.5,6.2-6.5,8.6-14.4c0,0,1.7,0.7,2.5,1.1c10.9,6.5,20,3.1,28.9,1c1-0.2,1.9-0.4,2.8-0.7
	c2.9,1,7.6,3,10.8,5.3c4.6,3.3,5.2,2.1,5.2,2.1c1.3-1.4-5.4-8.4-6.8-10.3c3.3-1.4,4.2-2.7,3.9-3V50c0,0,0.1-5.7,0.6-9.9
	c0,0,2.8,0.1,6-0.4V29h6.6V29.6z"/>
<path class="st7" d="M105.9,33c0,0-0.2-2.1-2.9-3.5h-6.4v10.6C101,39.4,106.3,37.7,105.9,33z"/>
<linearGradient id="SVGID_1_" gradientUnits="userSpaceOnUse" x1="81.9394" y1="85.4167" x2="94.8014" y2="77.8647" gradientTransform="matrix(1 0 0 -1 0 138)">
	<stop  offset="0" style="stop-color:#FFFFFF"/>
	<stop  offset="1" style="stop-color:#969595"/>
</linearGradient>
<path class="st8" d="M88.7,51.3c0,0,7.6,9.6,6.2,11.3c0,0-0.6,1.2-5.3-2.2c-4.7-3.4-12.7-6.1-13.5-6.1C76.2,54.3,79,49.1,88.7,51.3"
	/>
<g>
	<path class="st1" d="M32.8,33c0,0-9.5-5-15.6-4.4c0,0-9.6,0.6-9.1,3.8c0,0,0.7,0.8,4.3,1.2c3.6,0.4,15.4,4.9,19.9,16.1
		c0,0,3.1,7.6,1,14.1c0,0-1.9,3.4-0.8,4.7c1.1,1.3,8.9-3,12.6-14.5c0,0,6.7,3.6,12.7,4.3c0,0,10.7,0.4,18.3-4.1c0,0,1.9-0.1,9.8-1.8
		c3.1-0.7,5.7-2.3,5.9-3.4c0,0,0.1-5.9,0.6-10.2c0,0,16.2,0.4,15.4-7.5c0,0-0.2-2.4-3.4-3.8c0,0-3.1-2.4-3.6-3.5
		c0,0-2-8.7-22.2-10.6c0,0-5.9-5.4-16-0.8c0,0-18.6-17.7-37-9.9c0,0-1.1,1.3,1.8,2.2c2.9,0.8,13.3,6.6,10.8,16.8
		C38.1,21.8,34.6,25.8,32.8,33"/>
</g>
<g>
	<path class="st9" d="M91.4,48.9c0,0,0.6-6.5-0.6-10.3c0,0-21.5-0.4-31.3-8.4c0,0-4,12.5,5,16.9C64.6,47.2,68.6,50.5,91.4,48.9"/>
</g>
<g>
	<path class="st0" d="M59.6,29.9c0,0,0.2,5.5,3.5,6.8c0,0-1.3-1.9-0.1-4.3C63,32.5,60.4,30.6,59.6,29.9"/>
	<path class="st0" d="M64,33c0,0-1.1,4.1,2.4,5.9c0,0-0.4-2.4,1.1-4.3C67.6,34.6,64.8,33.3,64,33"/>
	<path class="st0" d="M73.9,36.3c0,0-2,3-2,4.3c0,0-4.7-3.2-4.2-6.1C67.6,34.6,72,35.9,73.9,36.3"/>
	<path class="st0" d="M74.2,36.3c0,0,2,4.5,1.4,5.1c0,0,1,1.7,3.3-4.2C79.1,37.2,74.8,36.8,74.2,36.3"/>
	<path class="st0" d="M79.7,37.3c0,0-1.4,3.1,0.1,6.8c0,0,4.9-3.9,6.1-6C85.9,38.2,80.2,37.5,79.7,37.3"/>
	<path class="st0" d="M85.9,37.9c0,0-0.4,4.3,1,6.5c0,0,3.9-4.5,4.2-5.9C91,38.5,86.6,38.1,85.9,37.9"/>
	<path class="st0" d="M60.4,43.2c0,0,1.4,0,3.4-1.4c0,0,1.2,2.9,0.2,5.4C64,47.2,60.3,45.2,60.4,43.2"/>
	<path class="st0" d="M64,47c0,0,2.1-1.3,2.7-3.9c0,0,0.8,3.9,1.9,5.3C68.6,48.5,64.7,47.9,64,47"/>
	<path class="st0" d="M68.6,48.4c0,0,0.7-3.3,2.8-4.2c0,0,0.2,3.6,2.1,4.9C73.4,49.1,69.5,48.8,68.6,48.4"/>
	<path class="st0" d="M73.3,49.1c0,0,2.4-2.7,3.6-5.7c0,0,1.4,3.2,1.4,6.1C78.4,49.4,73.9,49.8,73.3,49.1"/>
	<path class="st0" d="M78.4,49.3c0,0,3.6-2.3,4.4-6c0,0,1.9,2.7,1.9,6C84.8,49.4,79.2,49.7,78.4,49.3"/>
	<path class="st0" d="M84.6,49.4c0,0,3.3-2.1,4.7-5.6c0,0,1.3,2.9,2.2,5.2C91.4,48.9,85.7,49.7,84.6,49.4"/>
</g>
<path class="st10" d="M32.3,68.4c0,0,8.2-4.7,8.7-13.8c0,0,1.9-1,3.4-1.2c0,0,0,0.2,0.7,0.6c0,0-3.1,9.9-9.6,13.9
	C35.4,67.8,33.7,69.4,32.3,68.4"/>
<path class="st10" d="M8.2,32.4c0,0,5.3-2.8,12.4-1.5c0,0,6.4,1.2,12,6.1c0,0,0.3,5.2,3.1,8.6l0.8-1.4c0,0-9.1-14.4,12.4-26.6
	c0,0-7,2.3-7.3-1.3c-0.4-3.6-4.6-9.6-14.4-12.6c0,0-0.8-0.2-1.3-1c0,0-1.7,1.1,2,2.4s12.7,7.5,10.4,16.3c0,0-4.6,6.6-5.3,11.4
	c0,0-9.3-4.6-15.6-4.5C17.2,28.4,7.7,29,8.2,32.4"/>
<path class="st11" d="M50.6,16.8c0,0,5.5-3.2,11.9-4.1c0,0-16.2-16.1-35-10.7c0,0,16.8-1.9,27.4,8C54.9,9.9,57.1,12,50.6,16.8"/>
<path class="st10" d="M88.9,16.3H90l-0.6-0.7c0,0-4.9-1.8-11-2.2c0,0-6-5.3-15.9-0.8c0,0,11.7-2.5,15.7,3l1.7,1l0.4-1.2
	c0,0-0.6-0.8-1.1-1.1C79.3,14.4,85.9,14.9,88.9,16.3"/>
<path class="st12" d="M100.4,24.5l0.2-0.4c0,0,2.7,2.9,3.6,3.5C104.4,27.6,101.4,25.7,100.4,24.5"/>
<g>
	<path class="st12" d="M58.4,29.2c0,0,7.2,7.8,34.6,9.6c0,0-25.8-0.7-34.6-9.3L58.4,29.2"/>
	<path class="st12" d="M91.4,49c0,0-24.6,3.1-29.9-3.1c0,0-6.1-5.5-3.1-16.9c0,0,0.3,0.7,1.2,1.3c0,0-2.5,7.8,1.5,14.1
		c0,0,1.9,3.4,7.5,4.1C68.7,48.5,74.3,50,91.4,49"/>
	<path class="st13" d="M44.4,53.3c0,0,7.2-3.5,0.7-13c0,0,5.9-4,9.9-10.3c2.7-4.1,6.1-2.7,8.3-0.7c6.2,5.5,21.3,9.2,31.9,9.3
		c0,0-1.3,0.3-11.3-0.8c0,0-18.2-2.1-24.6-8c0,0-3.5,11.3,3.6,16.8c0,0,4.9,4.7,28.5,2.4c0,0,5.1,1.8-15.7,6.6
		C66.1,58,56.4,61.7,44.4,53.3"/>
</g>
<g>
	<path class="st10" d="M53.2,21.5c0,0-3.6,8.4-4.2,9.2c0,0,1.5,6.4,2.2,9.5c0,0-0.7-8.5-1.2-9.9C50,30.4,52,25.3,53.2,21.5"/>
	<path class="st10" d="M53,28.6c0,0,1.1,9.2,1.1,11.4c0,0,0.6-8.4,0.4-10.9l3.5-5.2L53,28.6z"/>
	<path class="st14" d="M89.3,24.7c1.7-2.1,1.2-3.1,3.4-3.1s7.7,2.9,7.7,2.9s2.5-2,0.7-7.4c0,0,0.6-0.7,1.2-0.7c0,0,0.1-1.7-0.4-2.2
		c0,0-8.4-1.5-12,1.1c-0.8,0.6-1.2,1-2.2,0.9c-2.2-0.3-8.4-2.1-14.8,1.4l0.1,0.4l-11.4,1.7c0,0-3.6,0.4-4.6,4.1c0,0,0,2.7,1.9,1
		c1.9-1.7,0.1-2.2,2.9-2.9L73,19.7l0.1,0.4c0,0,1,0.7,1.5,0.7c0,0-0.7,6.6,7.8,6.7c0,0,4.2,0.2,6.7-2.4L89.3,24.7z"/>
</g>
<linearGradient id="SVGID_2_" gradientUnits="userSpaceOnUse" x1="84.0894" y1="111.3846" x2="80.9513" y2="121.6468" gradientTransform="matrix(1 0 0 -1 0 138)">
	<stop  offset="0" style="stop-color:#EBF7FD"/>
	<stop  offset="1" style="stop-color:#90D8F7"/>
</linearGradient>
<path class="st15" d="M88.8,18.4c-1.5-1.3-6.8-2.9-12.5,0.3c0,0-1.1,0.8-1.1,2.8c0,1.1,1.5,5.3,6.7,5.1c3.5-0.2,4.6-0.7,5.9-1.7
	c1.2-0.9,2.1-2.8,2-3.5C89.4,20,89.3,18.9,88.8,18.4z"/>
<path class="st0" d="M80.7,16.9c1.3-0.2,2.8-0.1,4.1,0.1c0.6,0.1,1.2,0.3,1.9,0.4c0.4,0.1,0.9,0.1,1.3,0.3c0.1,0,0.1,0.1,0,0.2
	c-0.6,0.1-1.5-0.3-2-0.6c-0.6-0.2-0.7-0.1-1.2-0.2C83.1,16.9,81.7,17,80.7,16.9"/>
<linearGradient id="SVGID_3_" gradientUnits="userSpaceOnUse" x1="97.823" y1="113.3011" x2="94.6242" y2="123.7622" gradientTransform="matrix(1 0 0 -1 0 138)">
	<stop  offset="0" style="stop-color:#EBF7FD"/>
	<stop  offset="1" style="stop-color:#90D8F7"/>
</linearGradient>
<path class="st16" d="M100,16.3c0.4,0.3,1,1.9,1.2,3.3c0.1,1.2,0.3,2.1-0.4,3.4l-0.4,0.7c0,0-3.4-1.5-5.6-2.3
	c-2.2-0.7-2.8-0.3-2.9-0.3s-0.7-1-1-2.5c-0.2-1.7-0.2-2.2,0.3-2.7s3.6-1,6-0.4C99.4,16,99.8,16.1,100,16.3z"/>
<path class="st14" d="M78.3,18.8c0,0,5,3.8,6.6,8.1l1-0.6C86,26.3,82.3,20.9,78.3,18.8z"/>
<path class="st14" d="M79.8,18.1c0,0,4,3.5,6.7,7.8l2.1-1.1C88.7,24.8,82.7,18.1,79.8,18.1z"/>
<path class="st14" d="M92,15c0,0,4.4,4,5.2,7.6l1.3,0.6C98.6,23.2,96.1,17.8,92,15z"/>
<path class="st14" d="M93.6,15.3c0,0,3.6,3.2,5.2,8l1.8,0.7C100.7,24.1,99.7,17.9,93.6,15.3z"/>
<path class="st0" d="M93.6,15.5c1.4-0.3,2.8-0.1,4.1,0.1c0.6,0.1,1.2,0.3,1.9,0.4c0.4,0.1,0.9,0.1,1.3,0.3c0.1,0,0.1,0.2,0,0.2
	c-0.6,0.1-1.4-0.3-1.9-0.4c-0.6-0.2-0.8-0.2-1.3-0.3c-1.2-0.2-2.4-0.2-3.6-0.3"/>
<linearGradient id="SVGID_4_" gradientUnits="userSpaceOnUse" x1="46.8422" y1="92.7193" x2="25.58" y2="83.0849" gradientTransform="matrix(1 0 0 -1 0 138)">
	<stop  offset="0" style="stop-color:#FFFFFF"/>
	<stop  offset="1" style="stop-color:#969595"/>
</linearGradient>
<path class="st17" d="M32,59.7c0,0-2.2-0.4-1.9-3c0.2-2.7,8.7-23.6,16.6-14.8c0,0,3.2,7-1,10.9c0,0-6.7,1.7-11.2,4.7
	C33.2,58.7,32.6,59.9,32,59.7"/>
<path class="st10" d="M32,59.7c0,0-2.1-0.3-1.9-3C30.2,54.6,39,33,46.8,42C46.7,42,29.1,50.2,32,59.7"/>
</svg>
